<svg width="25" height="26" xmlns="http://www.w3.org/2000/svg">
 <!-- Created with Method Draw - http://github.com/duopixel/Method-Draw/ -->
 <g>
  <title>background</title>
 </g>
 <g>
  <title>Layer 1</title>
  <g id="svg_6" stroke="null">
   <path d="m12.329069,22.1c-0.51,0 -0.972,-0.298 -1.183,-0.762c-0.888,-1.951 -5.317,-11.836 -5.317,-14.838c0,-3.584 2.916,-6.5 6.5,-6.5s6.5,2.916 6.5,6.5c0,3.002 -4.428,12.887 -5.317,14.838c-0.21,0.464 -0.672,0.762 -1.183,0.762zm0,-19.5c-2.15,0 -3.9,1.75 -3.9,3.9c0,1.538 2.07,6.84 3.9,11.085c1.83,-4.247 3.9,-9.548 3.9,-11.085c0,-2.15 -1.75,-3.9 -3.9,-3.9z" id="svg_1" stroke="null"/>
   <circle cx="12.329063" cy="6.499997" r="1.95" id="svg_2" stroke="null"/>
   <path d="m22.057069,26l-19.456,0a2.595,2.595 0 0 1 -2.17,-1.167a2.589,2.589 0 0 1 -0.218,-2.459l2.785,-6.498a2.592,2.592 0 0 1 2.388,-1.576l1.07,0l0,2.6l-1.07,0l-2.787,6.5l19.457,0l-2.786,-6.5l-1.114,0l0,-2.6l1.114,0c1.043,0 1.98,0.619 2.39,1.577l2.784,6.499a2.588,2.588 0 0 1 -0.218,2.454a2.59,2.59 0 0 1 -2.17,1.17l0.001,0z" id="svg_3" stroke="null"/>
  </g>
 </g>
 <g>
  <title>background</title>
  <rect fill="none" id="canvas_background" height="30" width="90" y="-1" x="-1"/>
 </g>
</svg>