<svg width="88" height="28" xmlns="http://www.w3.org/2000/svg">
 <!-- Created with Method Draw - http://github.com/duopixel/Method-Draw/ -->
 <g>
  <title>background</title>
  <rect fill="none" id="canvas_background" height="30" width="90" y="-1" x="-1"/>
 </g>
 <g>
  <title>Layer 1</title>
  <g stroke="null" id="svg_1" fill-rule="nonzero" fill="#000">
   <path stroke="null" id="svg_1" d="m86.329068,6l-3,0l0,-2l-2,0l0,6l2,0l0,-2l3,0l0,15l-18,0l0,-15l2,0l0,-2l-2,0a2,2 0 0 0 -2,2l0,15a2,2 0 0 0 2,2l18,0a2,2 0 0 0 2,-2l0,-15a2,2 0 0 0 -2,-2z"/>
   <path stroke="null" id="svg_2" d="m73.329068,8l7,0l0,-2l-7,0l0,-2l-2,0l0,6l2,0l0,-2zm-3,4l4,0l0,4l-4,0l0,-4zm5,0l4,0l0,4l-4,0l0,-4zm5,0l4,0l0,4l-4,0l0,-4zm-10,5l4,0l0,4l-4,0l0,-4zm5,0l4,0l0,4l-4,0l0,-4zm-17,-7.2l-5.636,0l0,2.8l1.409,0l0,2.8l-1.41,0a1.4,1.4 0 0 0 -0.963,-1.329c-0.03,-0.01 -0.192,-0.061 -0.445,-0.138l0,-9.733c0,-4.2 -5.5,-4.2 -8.455,-4.2s-8.455,0 -8.455,4.2l0,9.733c-0.253,0.077 -0.415,0.129 -0.445,0.138a1.4,1.4 0 0 0 -0.964,1.329l-1.409,0l0,-2.8l1.41,0l0,-2.8l-5.637,0l0,2.8l1.41,0l0,4.2c0,0.773 0.629,1.4 1.408,1.4l2.818,0l0,1.4c0,0.773 0.63,1.4 1.41,1.4l7.045,0l0,4.2l-4.227,0l0,2.8l11.272,0l0,-2.8l-4.226,0l0,-4.2l7.046,0c0.779,0 1.409,-0.627 1.409,-1.4l0,-1.4l2.818,0c0.779,0 1.409,-0.627 1.409,-1.4l0,-4.2l1.408,0l0,-2.8zm-15.5,-7c1.97,0 5.636,0 5.636,1.4l0,1.4l-11.272,0l0,-1.4c0,-1.4 3.666,-1.4 5.636,-1.4zm-5.636,5.6l11.272,0l0,4.831c-1.596,-0.33 -3.604,-0.631 -5.636,-0.631s-4.04,0.301 -5.636,0.631l0,-4.831zm12.681,9.8l-14.09,0l0,-1.753c1.435,-0.39 4.263,-1.047 7.045,-1.047s5.61,0.657 7.045,1.047l0,1.753z"/>
   <g stroke="null" id="svg_6">
    <path stroke="null" id="svg_3" d="m12.329068,23.1c-0.51,0 -0.972,-0.298 -1.183,-0.762c-0.888,-1.951 -5.317,-11.836 -5.317,-14.838c0,-3.584 2.916,-6.5 6.5,-6.5s6.5,2.916 6.5,6.5c0,3.002 -4.428,12.887 -5.317,14.838c-0.21,0.464 -0.672,0.762 -1.183,0.762zm0,-19.5c-2.15,0 -3.9,1.75 -3.9,3.9c0,1.538 2.07,6.84 3.9,11.085c1.83,-4.247 3.9,-9.548 3.9,-11.085c0,-2.15 -1.75,-3.9 -3.9,-3.9z"/>
    <circle stroke="null" id="svg_4" r="1.95" cy="7.5" cx="12.329068"/>
    <path stroke="null" id="svg_5" d="m22.057068,27l-19.456,0a2.595,2.595 0 0 1 -2.17,-1.167a2.589,2.589 0 0 1 -0.218,-2.459l2.785,-6.498a2.592,2.592 0 0 1 2.388,-1.576l1.07,0l0,2.6l-1.07,0l-2.787,6.5l19.457,0l-2.786,-6.5l-1.114,0l0,-2.6l1.114,0c1.043,0 1.98,0.619 2.39,1.577l2.784,6.499a2.588,2.588 0 0 1 -0.218,2.454a2.59,2.59 0 0 1 -2.17,1.17l0.001,0z"/>
   </g>
  </g>
 </g>
</svg>