<svg width="40" height="40" xmlns="http://www.w3.org/2000/svg">
 <!-- Created with Method Draw - http://github.com/duopixel/Method-Draw/ -->
 <g>
  <title>background</title>
 </g>
 <g>
  <title>Layer 1</title>
  <path id="svg_8" fill-rule="evenodd" fill="#FFF" d="m20,40c-11.046,0 -20,-8.954 -20,-20s8.954,-20 20,-20s20,8.954 20,20s-8.954,20 -20,20zm-12.778,-18.69l16.618,0.004c0.04,-0.002 0.082,-0.004 0.124,-0.004c1.022,0 1.851,0.81 1.851,1.81s-0.829,1.811 -1.851,1.811c-0.042,0 -0.083,-0.001 -0.124,0.032l-6.913,-0.032l-2.469,0.026a2.673,2.673 0 0 0 -0.37,-0.026c-1.432,0 -2.592,1.135 -2.592,2.535c0,1.4 1.16,2.534 2.592,2.534c0.126,0 0.25,-0.009 0.37,0l10.37,-0.025c3.46,-0.283 6.172,-2.92 6.172,-6.13c0,-1.906 -0.955,-3.61 -2.456,-4.739a6.049,6.049 0 0 0 1.468,-3.95c0,-3.36 -2.752,-6.09 -6.172,-6.156l-8.888,0.013a2.297,2.297 0 0 0 -0.247,-0.013c-1.227,0 -2.222,0.973 -2.222,2.172c0,1.2 0.995,2.173 2.222,2.173c0.084,0 0.166,-0.005 0.247,0l8.888,0.004c0.965,0.062 1.728,0.847 1.728,1.806c0,0.96 -0.763,1.744 -1.728,1.81l-16.618,0c-1.227,0 -2.222,0.973 -2.222,2.173c0,1.2 0.995,2.172 2.222,2.172z"/>
 </g>
</svg>